# xmcd CD database file
# Copyright (C) 1993-1998 Ti Kan
# 
# Track frame offsets:
#     150
#     16862
#     29650
#     47087
#     63390
#     79167
#     100937
#     116810
#     132760
#     146190
#     162380
#     175662
# 
# Disc length: 2620 seconds
# 
# Revision: 1
# Processed by: cddbd v1.4b41PL1 Copyright (c) Steve Scherf et al.
# Submitted via: DiscPlay 4.0.4
# 
DISCID=a40a3a0c
DTITLE=Jackson Delta - Acoustic Blues
DYEAR=1900
DGENRE=
TTITLE0=Statesborough Blues
TTITLE1=I Need You By My Side
TTITLE2=Back Up From Zero
TTITLE3=Path to the Liquor Store
TTITLE4=Sugar Bee
TTITLE5=Baby Please Don't Go
TTITLE6=I Ain't Got No Baby Now
TTITLE7=Bad News Blues
TTITLE8=Sink or Swim
TTITLE9=Talk to Your Mama
TTITLE10=C. C. Rider
TTITLE11=John Hardy
EXTD=
EXTT0=
EXTT1=
EXTT2=
EXTT3=
EXTT4=
EXTT5=
EXTT6=
EXTT7=
EXTT8=
EXTT9=
EXTT10=
EXTT11=
PLAYORDER=
